<svg viewBox="0 0 29 18" fill="none" xmlns="http://www.w3.org/2000/svg">
<path d="M26.8512 17.8358C26.9766 17.9282 27.1252 17.984 27.2805 17.9971C27.4357 18.0101 27.5915 17.9798 27.7305 17.9095C27.8696 17.8393 27.9864 17.7318 28.068 17.5991C28.1497 17.4664 28.1929 17.3137 28.1929 17.1579V0.842073C28.1929 0.686289 28.1497 0.533554 28.068 0.400864C27.9864 0.268171 27.8696 0.160727 27.7305 0.090477C27.5915 0.0202255 27.4357 -0.0100746 27.2805 0.00294685C27.1252 0.0159683 26.9766 0.0718021 26.8512 0.164234L15.7799 8.32216C15.6737 8.40042 15.5873 8.50254 15.5279 8.62028C15.4684 8.73802 15.4374 8.86809 15.4374 9C15.4374 9.13191 15.4684 9.26198 15.5279 9.37972C15.5873 9.49746 15.6737 9.59958 15.7799 9.67784L26.8512 17.8358ZM11.4139 17.8358C11.5393 17.9282 11.6879 17.984 11.8431 17.9971C11.9984 18.0101 12.1542 17.9798 12.2932 17.9095C12.4323 17.8393 12.5491 17.7318 12.6307 17.5991C12.7123 17.4664 12.7555 17.3137 12.7555 17.1579L12.7555 0.842073C12.7555 0.686289 12.7123 0.533554 12.6307 0.400864C12.5491 0.268171 12.4323 0.160727 12.2932 0.090477C12.1542 0.0202255 11.9984 -0.0100746 11.8431 0.00294685C11.6879 0.0159683 11.5393 0.0718021 11.4139 0.164234L0.342527 8.32216C0.236338 8.40042 0.150017 8.50254 0.0905304 8.62028C0.0310421 8.73802 4.95911e-05 8.86809 4.95911e-05 9C4.95911e-05 9.13191 0.0310421 9.26198 0.0905304 9.37972C0.150017 9.49746 0.236338 9.59958 0.342527 9.67784L11.4139 17.8358Z" fill="white"/>
</svg>
