<svg viewBox="0 0 29 18" fill="none" xmlns="http://www.w3.org/2000/svg">
<path d="M1.34164 0.164234C1.21624 0.0718015 1.06766 0.0159688 0.91242 0.00294711C0.75718 -0.0100746 0.601371 0.0202255 0.462325 0.0904758C0.323278 0.160726 0.206447 0.268173 0.124825 0.400864C0.043204 0.533555 -6.71901e-06 0.686288 7.83637e-10 0.842073V17.1579C-6.71901e-06 17.3137 0.043204 17.4664 0.124825 17.5991C0.206447 17.7318 0.323278 17.8393 0.462325 17.9095C0.601371 17.9798 0.75718 18.0101 0.91242 17.9971C1.06766 17.984 1.21624 17.9282 1.34164 17.8358L12.413 9.67784C12.5192 9.59958 12.6055 9.49746 12.665 9.37972C12.7245 9.26198 12.7555 9.13191 12.7555 9C12.7555 8.86809 12.7245 8.73802 12.665 8.62028C12.6055 8.50254 12.5192 8.40042 12.413 8.32216L1.34164 0.164234ZM16.779 0.164234C16.6536 0.0718015 16.505 0.0159688 16.3497 0.00294711C16.1945 -0.0100746 16.0387 0.0202255 15.8997 0.0904758C15.7606 0.160726 15.6438 0.268173 15.5622 0.400864C15.4805 0.533555 15.4373 0.686288 15.4373 0.842073V17.1579C15.4373 17.3137 15.4805 17.4664 15.5622 17.5991C15.6438 17.7318 15.7606 17.8393 15.8997 17.9095C16.0387 17.9798 16.1945 18.0101 16.3497 17.9971C16.505 17.984 16.6536 17.9282 16.779 17.8358L27.8503 9.67784C27.9565 9.59958 28.0429 9.49746 28.1023 9.37972C28.1618 9.26198 28.1928 9.13191 28.1928 9C28.1928 8.86809 28.1618 8.73802 28.1023 8.62028C28.0429 8.50254 27.9565 8.40042 27.8503 8.32216L16.779 0.164234Z" fill="white"/>
</svg>
