<svg viewBox="0 0 18 18" fill="none" xmlns="http://www.w3.org/2000/svg">
<path d="M6.01172 1.54688H2.10938C1.79824 1.54688 1.54688 1.79824 1.54688 2.10938V6.04688C1.54688 6.20156 1.67344 6.32812 1.82812 6.32812H2.67188C2.82656 6.32812 2.95312 6.20156 2.95312 6.04688V2.95312H6.01172C6.16641 2.95312 6.29297 2.82656 6.29297 2.67188V1.82812C6.29297 1.67344 6.16641 1.54688 6.01172 1.54688ZM16.1719 11.6719H15.3281C15.1734 11.6719 15.0469 11.7984 15.0469 11.9531V15.0469H11.9883C11.8336 15.0469 11.707 15.1734 11.707 15.3281V16.1719C11.707 16.3266 11.8336 16.4531 11.9883 16.4531H15.8906C16.2018 16.4531 16.4531 16.2018 16.4531 15.8906V11.9531C16.4531 11.7984 16.3266 11.6719 16.1719 11.6719ZM6.01172 15.0469H2.95312V11.9531C2.95312 11.7984 2.82656 11.6719 2.67188 11.6719H1.82812C1.67344 11.6719 1.54688 11.7984 1.54688 11.9531V15.8906C1.54688 16.2018 1.79824 16.4531 2.10938 16.4531H6.01172C6.16641 16.4531 6.29297 16.3266 6.29297 16.1719V15.3281C6.29297 15.1734 6.16641 15.0469 6.01172 15.0469ZM15.8906 1.54688H11.9883C11.8336 1.54688 11.707 1.67344 11.707 1.82812V2.67188C11.707 2.82656 11.8336 2.95312 11.9883 2.95312H15.0469V6.04688C15.0469 6.20156 15.1734 6.32812 15.3281 6.32812H16.1719C16.3266 6.32812 16.4531 6.20156 16.4531 6.04688V2.10938C16.4531 1.79824 16.2018 1.54688 15.8906 1.54688Z" fill="white"/>
</svg>
