<svg viewBox="0 0 27 27" fill="none" xmlns="http://www.w3.org/2000/svg">
<path d="M18.3066 7.33349C18.3066 7.50962 18.3766 7.67854 18.5011 7.80308C18.6257 7.92763 18.7946 7.9976 18.9707 7.9976H21.2951C21.5593 7.9976 21.8127 8.10255 21.9995 8.28936C22.1863 8.47618 22.2913 8.72956 22.2913 8.99376C22.2913 9.25796 22.1863 9.51134 21.9995 9.69815C21.8127 9.88497 21.5593 9.98992 21.2951 9.98992H18.9707C18.2662 9.98992 17.5905 9.71005 17.0923 9.21187C16.5941 8.71369 16.3143 8.03802 16.3143 7.33349V5.0091C16.3143 4.7449 16.4192 4.49153 16.606 4.30471C16.7929 4.11789 17.0462 4.01294 17.3104 4.01294C17.5746 4.01294 17.828 4.11789 18.0148 4.30471C18.2016 4.49153 18.3066 4.7449 18.3066 5.0091V7.33349ZM18.3066 17.9592C18.3066 17.7831 18.3766 17.6142 18.5011 17.4896C18.6257 17.3651 18.7946 17.2951 18.9707 17.2951H21.2951C21.5593 17.2951 21.8127 17.1902 21.9995 17.0034C22.1863 16.8165 22.2913 16.5632 22.2913 16.299C22.2913 16.0348 22.1863 15.7814 21.9995 15.5946C21.8127 15.4078 21.5593 15.3028 21.2951 15.3028H18.9707C18.2662 15.3028 17.5905 15.5827 17.0923 16.0809C16.5941 16.579 16.3143 17.2547 16.3143 17.9592V20.2836C16.3143 20.5478 16.4192 20.8012 16.606 20.988C16.7929 21.1748 17.0462 21.2798 17.3104 21.2798C17.5746 21.2798 17.828 21.1748 18.0148 20.988C18.2016 20.8012 18.3066 20.5478 18.3066 20.2836V17.9592ZM8.34496 17.2951C8.52109 17.2951 8.69001 17.3651 8.81456 17.4896C8.9391 17.6142 9.00907 17.7831 9.00907 17.9592V20.2836C9.00907 20.5478 9.11402 20.8012 9.30084 20.988C9.48766 21.1748 9.74103 21.2798 10.0052 21.2798C10.2694 21.2798 10.5228 21.1748 10.7096 20.988C10.8964 20.8012 11.0014 20.5478 11.0014 20.2836V17.9592C11.0014 17.2547 10.7215 16.579 10.2233 16.0809C9.72517 15.5827 9.04949 15.3028 8.34496 15.3028H6.02058C5.75638 15.3028 5.503 15.4078 5.31618 15.5946C5.12937 15.7814 5.02441 16.0348 5.02441 16.299C5.02441 16.5632 5.12937 16.8165 5.31618 17.0034C5.503 17.1902 5.75638 17.2951 6.02058 17.2951H8.34496ZM9.00907 7.33349C9.00907 7.50962 8.9391 7.67854 8.81456 7.80308C8.69001 7.92763 8.52109 7.9976 8.34496 7.9976H6.02058C5.75638 7.9976 5.503 8.10255 5.31618 8.28936C5.12937 8.47618 5.02441 8.72956 5.02441 8.99376C5.02441 9.25796 5.12937 9.51134 5.31618 9.69815C5.503 9.88497 5.75638 9.98992 6.02058 9.98992H8.34496C9.04949 9.98992 9.72517 9.71005 10.2233 9.21187C10.7215 8.71369 11.0014 8.03802 11.0014 7.33349V5.0091C11.0014 4.7449 10.8964 4.49153 10.7096 4.30471C10.5228 4.11789 10.2694 4.01294 10.0052 4.01294C9.74103 4.01294 9.48766 4.11789 9.30084 4.30471C9.11402 4.49153 9.00907 4.7449 9.00907 5.0091V7.33349Z" fill="white"/>
</svg>
