<svg viewBox="0 0 16 16" fill="none" xmlns="http://www.w3.org/2000/svg">
<g clip-path="url(#clip0_16_34)">
<path d="M8 2.75V13.25C7.99968 13.3933 7.95837 13.5335 7.88095 13.6541C7.80354 13.7746 7.69324 13.8705 7.56309 13.9305C7.43293 13.9904 7.28835 14.0118 7.1464 13.9923C7.00446 13.9727 6.87108 13.9129 6.762 13.82L3.473 11H1.75C1.28587 11 0.840752 10.8156 0.512563 10.4874C0.184374 10.1592 0 9.71413 0 9.25L0 6.75C0 5.784 0.784 5 1.75 5H3.472L6.762 2.18C6.87094 2.08665 7.00437 2.02651 7.14647 2.0067C7.28856 1.9869 7.43335 2.00826 7.56367 2.06826C7.69398 2.12826 7.80436 2.22438 7.88169 2.34521C7.95903 2.46605 8.00009 2.60653 8 2.75ZM11.28 5.22L13 6.94L14.72 5.22C14.8621 5.08735 15.0502 5.01509 15.2446 5.01845C15.439 5.02181 15.6245 5.10052 15.762 5.238C15.8995 5.37548 15.9782 5.56097 15.9815 5.75536C15.9849 5.94975 15.9126 6.13785 15.78 6.28L14.06 8L15.78 9.72C15.8787 9.81167 15.9509 9.92827 15.9889 10.0575C16.0269 10.1868 16.0294 10.3239 15.996 10.4544C15.9626 10.5849 15.8947 10.704 15.7993 10.7992C15.7039 10.8943 15.5846 10.962 15.454 10.995C15.3236 11.0283 15.1867 11.0259 15.0575 10.9881C14.9284 10.9503 14.8118 10.8784 14.72 10.78L13 9.06L11.28 10.78C11.1883 10.8787 11.0717 10.9509 10.9425 10.9889C10.8132 11.0269 10.6761 11.0294 10.5456 10.996C10.4151 10.9626 10.296 10.8947 10.2008 10.7993C10.1057 10.7039 10.038 10.5846 10.005 10.454C9.97169 10.3236 9.97408 10.1867 10.0119 10.0575C10.0497 9.92839 10.1216 9.8118 10.22 9.72L11.94 8L10.22 6.28C10.1213 6.18833 10.0491 6.07172 10.0111 5.94247C9.97308 5.81323 9.97063 5.67612 10.004 5.54559C10.0374 5.41507 10.1053 5.29596 10.2007 5.20082C10.2961 5.10568 10.4154 5.03803 10.546 5.005C10.6764 4.97169 10.8133 4.97407 10.9425 5.0119C11.0716 5.04973 11.1882 5.12161 11.28 5.22ZM4.238 6.32C4.10201 6.43629 3.92893 6.50013 3.75 6.5H1.75C1.6837 6.5 1.62011 6.52634 1.57322 6.57322C1.52634 6.6201 1.5 6.68369 1.5 6.75V9.25C1.5 9.388 1.612 9.5 1.75 9.5H3.75C3.929 9.5 4.102 9.564 4.238 9.68L6.5 11.62V4.38L4.238 6.32Z" fill="white"/>
</g>
<defs>
<clipPath id="clip0_16_34">
<rect width="16" height="16" fill="white"/>
</clipPath>
</defs>
</svg>
