<svg viewBox="0 0 29 30" fill="none" xmlns="http://www.w3.org/2000/svg">
<path d="M24.4712 15.8063V14.4414L26.184 12.9426C26.4997 12.6644 26.7069 12.2834 26.769 11.8671C26.831 11.4509 26.7439 11.0261 26.523 10.6678L24.4176 7.09943C24.2612 6.82847 24.0363 6.60341 23.7654 6.44683C23.4945 6.29025 23.1872 6.20766 22.8743 6.20734C22.6804 6.20585 22.4876 6.23598 22.3034 6.29655L20.1356 7.02806C19.7618 6.77854 19.3714 6.55499 18.967 6.35899L18.512 4.11092C18.4304 3.7002 18.207 3.33126 17.8808 3.06868C17.5546 2.80611 17.1465 2.66662 16.7278 2.67464H12.5528C12.1341 2.66662 11.726 2.80611 11.3998 3.06868C11.0736 3.33126 10.8502 3.7002 10.7686 4.11092L10.3136 6.35899C9.90681 6.55583 9.51343 6.77935 9.13608 7.02806L7.01289 6.26086C6.82671 6.21235 6.63391 6.19428 6.44195 6.20734C6.12907 6.20766 5.82178 6.29025 5.5509 6.44683C5.28001 6.60341 5.05507 6.82847 4.89863 7.09943L2.79329 10.6678C2.58506 11.0255 2.50769 11.4445 2.57441 11.853C2.64114 12.2615 2.84782 12.6341 3.15905 12.907L4.8451 14.4503V15.8152L3.15905 17.3139C2.83903 17.5887 2.6267 17.9679 2.55974 18.3844C2.49278 18.8008 2.57553 19.2275 2.79329 19.5887L4.89863 23.1571C5.05507 23.4281 5.28001 23.6531 5.5509 23.8097C5.82178 23.9663 6.12907 24.0489 6.44195 24.0492C6.63585 24.0507 6.82869 24.0206 7.01289 23.96L9.18068 23.2285C9.55445 23.478 9.94492 23.7016 10.3493 23.8976L10.8043 26.1456C10.8859 26.5564 11.1093 26.9253 11.4355 27.1879C11.7617 27.4504 12.1698 27.5899 12.5885 27.5819H16.7992C17.2178 27.5899 17.626 27.4504 17.9522 27.1879C18.2783 26.9253 18.5018 26.5564 18.5834 26.1456L19.0383 23.8976C19.4451 23.7007 19.8385 23.4772 20.2159 23.2285L22.3748 23.96C22.559 24.0206 22.7518 24.0507 22.9457 24.0492C23.2586 24.0489 23.5659 23.9663 23.8367 23.8097C24.1076 23.6531 24.3326 23.4281 24.489 23.1571L26.523 19.5887C26.7312 19.231 26.8086 18.812 26.7419 18.4035C26.6751 17.995 26.4685 17.6225 26.1572 17.3496L24.4712 15.8063ZM22.8743 22.265L19.8144 21.2302C19.0977 21.8363 18.2792 22.3105 17.3969 22.6308L16.7635 25.8334H12.5528L11.9194 22.6665C11.044 22.3372 10.2299 21.8638 9.51076 21.2659L6.44195 22.265L4.33661 18.6967L6.76311 16.5556C6.59816 15.6322 6.59816 14.6868 6.76311 13.7634L4.33661 11.5599L6.44195 7.99152L9.50184 9.02635C10.2186 8.42025 11.0371 7.94605 11.9194 7.62577L12.5528 4.42315H16.7635L17.3969 7.59008C18.2722 7.91936 19.0864 8.39276 19.8055 8.99067L22.8743 7.99152L24.9797 11.5599L22.5532 13.7009C22.7181 14.6244 22.7181 15.5697 22.5532 16.4932L24.9797 18.6967L22.8743 22.265Z" fill="white"/>
<path d="M14.6582 20.4808C13.5996 20.4808 12.5647 20.1668 11.6845 19.5787C10.8043 18.9905 10.1182 18.1546 9.71311 17.1765C9.30798 16.1985 9.20198 15.1223 9.40851 14.084C9.61504 13.0457 10.1248 12.0919 10.8734 11.3434C11.622 10.5948 12.5757 10.085 13.614 9.87849C14.6523 9.67196 15.7285 9.77795 16.7066 10.1831C17.6846 10.5882 18.5206 11.2743 19.1087 12.1545C19.6969 13.0347 20.0108 14.0696 20.0108 15.1282C20.018 15.8331 19.8844 16.5323 19.6179 17.185C19.3515 17.8376 18.9575 18.4305 18.459 18.929C17.9606 19.4274 17.3676 19.8214 16.715 20.0879C16.0624 20.3544 15.3631 20.4879 14.6582 20.4808ZM14.6582 11.5598C14.1866 11.5488 13.7177 11.6336 13.2798 11.8091C12.8419 11.9845 12.4441 12.2469 12.1105 12.5805C11.777 12.9141 11.5145 13.3118 11.3391 13.7498C11.1637 14.1877 11.0789 14.6566 11.0899 15.1282C11.0789 15.5998 11.1637 16.0687 11.3391 16.5066C11.5145 16.9446 11.777 17.3423 12.1105 17.6759C12.4441 18.0095 12.8419 18.2719 13.2798 18.4473C13.7177 18.6228 14.1866 18.7076 14.6582 18.6966C15.1298 18.7076 15.5988 18.6228 16.0367 18.4473C16.4746 18.2719 16.8723 18.0095 17.2059 17.6759C17.5395 17.3423 17.8019 16.9446 17.9774 16.5066C18.1528 16.0687 18.2376 15.5998 18.2266 15.1282C18.2376 14.6566 18.1528 14.1877 17.9774 13.7498C17.8019 13.3118 17.5395 12.9141 17.2059 12.5805C16.8723 12.2469 16.4746 11.9845 16.0367 11.8091C15.5988 11.6336 15.1298 11.5488 14.6582 11.5598Z" fill="white"/>
</svg>
