<svg viewBox="0 0 29 30" fill="none" xmlns="http://www.w3.org/2000/svg">
<g clip-path="url(#clip0_2_101)">
<mask id="mask0_2_101" style="mask-type:luminance" maskUnits="userSpaceOnUse" x="0" y="0" width="29" height="30">
<path d="M0.0600586 0.854736H28.6071V29.4017H0.0600586V0.854736Z" fill="white"/>
</mask>
<g mask="url(#mask0_2_101)">
<path fill-rule="evenodd" clip-rule="evenodd" d="M9.08805 18.5896C8.58663 18.0875 7.90637 17.8052 7.19681 17.8045H3.62843C3.39184 17.8045 3.16493 17.7105 2.99763 17.5432C2.83033 17.3759 2.73634 17.149 2.73634 16.9124V13.3441C2.73634 13.1075 2.83033 12.8806 2.99763 12.7133C3.16493 12.546 3.39184 12.452 3.62843 12.452H7.19681C7.90637 12.4513 8.58663 12.169 9.08805 11.6669L13.5182 7.23857C13.5852 7.17195 13.6704 7.12666 13.763 7.10842C13.8557 7.09017 13.9517 7.09979 14.039 7.13605C14.1262 7.17232 14.2007 7.2336 14.2531 7.31218C14.3056 7.39076 14.3336 7.4831 14.3336 7.57756V22.6789C14.3336 22.7734 14.3056 22.8657 14.2531 22.9443C14.2007 23.0229 14.1262 23.0842 14.039 23.1204C13.9517 23.1567 13.8557 23.1663 13.763 23.1481C13.6704 23.1298 13.5852 23.0845 13.5182 23.0179L9.08805 18.5896ZM3.62843 9.77568H7.19681L11.6252 5.34733C12.0663 4.90629 12.6283 4.60595 13.2402 4.48429C13.852 4.36262 14.4861 4.42509 15.0625 4.66379C15.6388 4.9025 16.1314 5.30672 16.478 5.82536C16.8247 6.34399 17.0097 6.95376 17.0098 7.57756V22.6789C17.0097 23.3027 16.8247 23.9125 16.478 24.4311C16.1314 24.9498 15.6388 25.354 15.0625 25.5927C14.4861 25.8314 13.852 25.8939 13.2402 25.7722C12.6283 25.6505 12.0663 25.3502 11.6252 24.9092L7.19681 20.4808H3.62843C2.68204 20.4808 1.77441 20.1049 1.10521 19.4357C0.436011 18.7665 0.0600586 17.8588 0.0600586 16.9124V13.3441C0.0600586 12.3977 0.436011 11.49 1.10521 10.8208C1.77441 10.1516 2.68204 9.77568 3.62843 9.77568ZM25.3277 24.233C24.8549 24.8021 24.0021 24.7968 23.4793 24.2758C22.9583 23.753 22.9655 22.9091 23.424 22.331C25.0515 20.2834 25.9353 17.7438 25.9308 15.1282C25.9353 12.5127 25.0515 9.97307 23.424 7.92548C22.9655 7.3474 22.9583 6.50348 23.4793 5.98072C24.0021 5.45973 24.8549 5.45616 25.3277 6.02354C27.4517 8.58171 28.612 11.8033 28.6071 15.1282C28.6071 18.5896 27.376 21.7619 25.3277 24.233ZM21.5131 20.4237C21.0742 21.0179 20.2178 21.0125 19.695 20.4897C19.1723 19.967 19.1883 19.1266 19.588 18.5039C20.2347 17.4969 20.5785 16.3251 20.5782 15.1282C20.5782 13.8847 20.2142 12.7249 19.588 11.7526C19.1883 11.1317 19.1723 10.2895 19.695 9.76676C20.2178 9.244 21.0742 9.23864 21.5149 9.83278C22.6068 11.3137 23.2545 13.1478 23.2545 15.1282C23.2571 17.0345 22.6466 18.8911 21.5131 20.4237Z" fill="white"/>
</g>
</g>
<defs>
<clipPath id="clip0_2_101">
<rect width="28.547" height="28.547" fill="white" transform="translate(0.0600586 0.854736)"/>
</clipPath>
</defs>
</svg>
